<svg width="517" height="137" viewBox="0 0 517 137" fill="none" xmlns="http://www.w3.org/2000/svg">
<path d="M105 118L158.881 19L193.408 60.7138L223.577 19L283 118L223.577 74.0896L193.408 100.372L158.881 72.8647L105 118Z" fill="url(#paint0_linear_384_1138)"/>
<path d="M313.957 62V45.0898H309.797L305.109 56.457H304.898L300.223 45.0898H296.051V62H299.332V50.6914H299.52L303.832 61.0273H306.188L310.488 50.6914H310.676V62H313.957ZM322.593 45.0898H319.054V56.1641C319.054 59.9141 321.808 62.4336 326.132 62.4336C330.468 62.4336 333.222 59.9141 333.222 56.1641V45.0898H329.683V55.8008C329.683 57.9336 328.405 59.293 326.132 59.293C323.87 59.293 322.593 57.9336 322.593 55.8008V45.0898ZM345.947 62V48.1133H351.022V45.0898H337.334V48.1133H342.408V62H345.947ZM366.314 58.9766H358.65V54.8633H365.88V52.0625H358.65V48.1133H366.314V45.0898H355.11V62H366.314V58.9766ZM382.203 58.9766H374.539V54.8633H381.77V52.0625H374.539V48.1133H382.203V45.0898H371V62H382.203V58.9766ZM394.484 62C398.093 62 400.331 60.125 400.331 57.1602C400.331 54.9805 398.702 53.293 396.464 53.1289V52.918C398.198 52.6602 399.523 51.1016 399.523 49.3086C399.523 46.6953 397.566 45.0898 394.284 45.0898H386.89V62H394.484ZM390.429 47.7969H393.382C395.07 47.7969 396.042 48.6055 396.042 49.9531C396.042 51.3125 394.999 52.0977 393.089 52.0977H390.429V47.7969ZM390.429 59.293V54.4883H393.499C395.585 54.4883 396.722 55.3086 396.722 56.8555C396.722 58.4375 395.62 59.293 393.581 59.293H390.429ZM313.957 93V76.0898H309.797L305.109 87.457H304.898L300.223 76.0898H296.051V93H299.332V81.6914H299.52L303.832 92.0273H306.188L310.488 81.6914H310.676V93H313.957ZM330.222 89.9766H322.558V85.8633H329.788V83.0625H322.558V79.1133H330.222V76.0898H319.019V93H330.222V89.9766ZM349.604 93V76.0898H346.065V82.9102H338.447V76.0898H334.908V93H338.447V85.9336H346.065V93H349.604ZM358.204 78.9492H361.275C363.032 78.9492 364.134 79.957 364.134 81.5625C364.134 83.1914 363.091 84.1523 361.31 84.1523H358.204V78.9492ZM358.204 86.8711H361.099L364.251 93H368.259L364.696 86.3203C366.642 85.5469 367.767 83.6719 367.767 81.5156C367.767 78.1523 365.482 76.0898 361.767 76.0898H354.665V93H358.204V86.8711ZM383.152 93H386.985L381.113 76.0898H376.953L371.082 93H374.633L375.934 88.9688H381.875L383.152 93ZM378.817 79.6055H379.027L381.125 86.2383H376.695L378.817 79.6055ZM389.667 88.0312C389.667 91.3477 391.941 93.4336 395.409 93.4336C398.995 93.4336 401.152 91.3945 401.152 87.75V76.0898H397.613V87.7266C397.613 89.3906 396.816 90.2695 395.363 90.2695C394.003 90.2695 393.113 89.3906 393.089 88.0312H389.667Z" fill="white"/>
<defs>
<linearGradient id="paint0_linear_384_1138" x1="194.916" y1="20.2249" x2="194.916" y2="119.225" gradientUnits="userSpaceOnUse">
<stop stop-color="white"/>
<stop offset="1" stop-color="white"/>
</linearGradient>
</defs>
</svg>
