<svg width="32" height="32" viewBox="0 0 32 32" fill="none" xmlns="http://www.w3.org/2000/svg">
<g clip-path="url(#clip0_20_179)">
<path d="M17.1452 0.0406667V0H14.8199V0.0433333C11.3517 0.29856 8.06111 1.67677 5.44624 3.96933C2.83137 6.26188 1.03461 9.34395 0.327967 12.7489C-0.378679 16.1539 0.043266 19.6965 1.52992 22.8402C3.01658 25.984 5.48701 28.5578 8.5672 30.172C8.86435 29.4539 9.22232 28.7625 9.6372 28.1053C7.24248 26.8429 5.27427 24.9009 3.97987 22.5233C5.05928 20.5364 6.61441 18.8481 8.50612 17.6094C10.3978 16.3707 12.5671 15.6203 14.8199 15.4253V32H17.1452V31.9593C19.5204 31.7902 21.8277 31.0925 23.8987 29.9173C25.9697 28.742 27.7519 27.119 29.1152 25.1667C29.2574 24.964 29.3945 24.758 29.5265 24.5487C29.937 23.901 30.3002 23.2246 30.6132 22.5247L30.6359 22.4733C31.6723 20.1258 32.1292 17.5635 31.9681 15.0024C31.8069 12.4413 31.0324 9.95644 29.7099 7.75731C28.3874 5.55819 26.5556 3.70922 24.3689 2.36626C22.1822 1.02329 19.7047 0.225686 17.1452 0.0406667ZM2.88454 19.8833C2.3107 17.9386 2.17614 15.8906 2.4906 13.8875C2.80506 11.8844 3.56068 9.97625 4.70282 8.30089C5.84496 6.62554 7.3451 5.2249 9.09477 4.20023C10.8444 3.17557 12.7999 2.55247 14.8199 2.376V13.0927C12.4509 13.2667 10.1505 13.9665 8.08592 15.1412C6.02134 16.3158 4.24448 17.9358 2.88454 19.8833ZM17.1452 29.6273V2.37267C19.1686 2.54424 21.1284 3.1639 22.8826 4.18673C24.6367 5.20956 26.1414 6.60992 27.2873 8.28629C28.4332 9.96265 29.1918 11.873 29.5079 13.8789C29.8241 15.8847 29.6899 17.9358 29.1152 19.8833C28.9805 20.3401 28.8217 20.7894 28.6392 21.2293C28.456 21.6717 28.2495 22.1041 28.0205 22.5247C27.8783 22.7864 27.7279 23.0429 27.5692 23.294C26.4406 25.0846 24.9116 26.5886 23.1027 27.6877C21.2938 28.7867 19.2544 29.4507 17.1452 29.6273Z" fill="#101828"/>
</g>
<defs>
<clipPath id="clip0_20_179">
<rect width="32" height="32" fill="white"/>
</clipPath>
</defs>
</svg>
