<svg width="24" height="24" viewBox="0 0 24 24" fill="none" xmlns="http://www.w3.org/2000/svg">
<path d="M21.7499 12.0658V12.0001C21.7489 10.5532 21.4263 9.12462 20.8053 7.81775C20.1843 6.51088 19.2805 5.35845 18.1592 4.44388L18.103 4.39701L18.0374 4.35013C16.606 3.21906 14.886 2.51226 13.073 2.31007C11.2599 2.10788 9.42648 2.41842 7.78112 3.20638L7.65925 3.27201C6.32916 3.93551 5.16767 4.89324 4.26289 6.07254C3.35811 7.25184 2.73382 8.62172 2.43737 10.0783V10.097C2.07704 11.8985 2.23452 13.7652 2.89157 15.4808C3.54863 17.1965 4.67836 18.6908 6.14987 19.7908L6.27175 19.8845H6.28112C7.55413 20.8075 9.03149 21.4089 10.5872 21.6375C12.1429 21.866 13.7308 21.7149 15.2155 21.197L15.3186 21.1595C17.1865 20.4806 18.8028 19.2482 19.9519 17.6267C21.1011 16.0052 21.7283 14.0718 21.7499 12.0845V12.0658ZM20.2124 11.2689L19.4999 11.2501C18.1102 11.2513 16.7266 11.4341 15.3842 11.7939C15.0553 10.8233 14.6313 9.88749 14.1186 9.00013C15.453 8.19619 16.6601 7.19771 17.6999 6.03763C19.1461 7.4175 20.0394 9.27747 20.2124 11.2689V11.2689ZM16.528 5.10951C15.5915 6.13836 14.5079 7.02294 13.3124 7.73451C12.3086 6.32763 11.0833 5.09285 9.68425 4.07826C10.8317 3.74487 12.0378 3.66443 13.2193 3.84247C14.4009 4.02051 15.5298 4.4528 16.528 5.10951V5.10951ZM8.02487 4.77201C9.5613 5.73608 10.9007 6.98317 11.9717 8.44701C10.0976 9.30456 8.06091 9.74899 5.99987 9.75013C5.36328 9.74874 4.7275 9.7049 4.09675 9.61888C4.7257 7.55375 6.1348 5.81507 8.02487 4.77201V4.77201ZM3.74987 12.0001C3.74987 11.6908 3.76862 11.3908 3.79675 11.1001C4.52717 11.1971 5.26305 11.2472 5.99987 11.2501C8.35209 11.2535 10.675 10.728 12.7967 9.71263C13.2642 10.5193 13.6505 11.3703 13.9499 12.2533C13.1545 12.5563 12.3835 12.9199 11.6436 13.3408C9.58763 14.5311 7.82545 16.1683 6.48737 18.1314C5.62626 17.3588 4.93747 16.4136 4.46582 15.3572C3.99417 14.3009 3.75023 13.157 3.74987 12.0001V12.0001ZM7.68737 19.0314C9.31216 16.6125 11.6429 14.7531 14.3624 13.7064C14.5909 14.7377 14.7072 15.7907 14.7092 16.847C14.7088 17.8714 14.5988 18.8929 14.3811 19.8939C13.6099 20.1321 12.8071 20.2522 11.9999 20.2501C10.4775 20.2496 8.98489 19.8278 7.68737 19.0314V19.0314ZM16.0405 19.1908C16.1533 18.4146 16.2097 17.6313 16.2092 16.847C16.2085 15.6322 16.0701 14.4213 15.7967 13.2376C17.0048 12.9155 18.2496 12.7516 19.4999 12.7501L20.2124 12.7689C20.0871 14.0966 19.6422 15.3742 18.9157 16.4925C18.1892 17.6109 17.2027 18.5367 16.0405 19.1908V19.1908Z" fill="#667085"/>
</svg>
