<svg width="24" height="24" viewBox="0 0 24 24" fill="none" xmlns="http://www.w3.org/2000/svg">
<path d="M17.494 8.8125C18.167 8.32443 18.6682 7.63587 18.9259 6.84546C19.1836 6.05506 19.1845 5.20337 18.9285 4.41243C18.6725 3.62148 18.1727 2.93187 17.5007 2.44238C16.8287 1.95288 16.0191 1.68864 15.1877 1.6875H8.81275C7.9814 1.68864 7.17175 1.95288 6.49978 2.44238C5.82782 2.93187 5.32802 3.62148 5.07201 4.41243C4.81599 5.20337 4.81689 6.05506 5.07457 6.84546C5.33226 7.63587 5.8335 8.32443 6.5065 8.8125C6.00124 9.17639 5.58972 9.65518 5.30588 10.2094C5.02205 10.7636 4.87402 11.3773 4.87402 12C4.87402 12.6227 5.02205 13.2364 5.30588 13.7906C5.58972 14.3448 6.00124 14.8236 6.5065 15.1875C5.95997 15.5824 5.52402 16.1111 5.24043 16.7229C4.95683 17.3346 4.8351 18.009 4.88688 18.6813C4.93866 19.3536 5.16223 20.0013 5.53616 20.5625C5.91009 21.1236 6.42186 21.5793 7.02242 21.8859C7.62298 22.1924 8.29222 22.3397 8.96601 22.3134C9.63979 22.2872 10.2955 22.0883 10.8704 21.736C11.4453 21.3836 11.9201 20.8895 12.2493 20.301C12.5784 19.7125 12.7509 19.0493 12.7502 18.375V15.0844C13.1589 15.4292 13.6336 15.6872 14.1453 15.8426C14.657 15.998 15.1949 16.0475 15.7264 15.9882C16.2578 15.9288 16.7716 15.7619 17.2364 15.4975C17.7012 15.233 18.1073 14.8767 18.4298 14.4502C18.7524 14.0237 18.9847 13.536 19.1126 13.0168C19.2406 12.4976 19.2614 11.9577 19.1738 11.4302C19.0862 10.9027 18.8921 10.3985 18.6033 9.94846C18.3145 9.49841 17.9371 9.1119 17.494 8.8125ZM17.6252 5.625C17.6228 6.27071 17.3652 6.88926 16.9086 7.34584C16.452 7.80243 15.8335 8.06003 15.1877 8.0625H12.7502V3.1875H15.1877C15.8335 3.18997 16.452 3.44757 16.9086 3.90416C17.3652 4.36074 17.6228 4.97929 17.6252 5.625ZM6.37525 5.625C6.37772 4.97929 6.63532 4.36074 7.0919 3.90416C7.54849 3.44757 8.16704 3.18997 8.81275 3.1875H11.2502V8.0625H8.81275C8.16704 8.06003 7.54849 7.80243 7.0919 7.34584C6.63532 6.88926 6.37772 6.27071 6.37525 5.625V5.625ZM6.37525 12C6.37772 11.3543 6.63532 10.7357 7.0919 10.2792C7.54849 9.82257 8.16704 9.56497 8.81275 9.5625H11.2502V14.4375H8.81275C8.16704 14.435 7.54849 14.1774 7.0919 13.7208C6.63532 13.2643 6.37772 12.6457 6.37525 12ZM8.81275 20.8125C8.16628 20.8125 7.5463 20.5557 7.08918 20.0986C6.63206 19.6415 6.37525 19.0215 6.37525 18.375C6.37525 17.7285 6.63206 17.1085 7.08918 16.6514C7.5463 16.1943 8.16628 15.9375 8.81275 15.9375H11.2502V18.375C11.2478 19.0207 10.9902 19.6393 10.5336 20.0958C10.077 20.5524 9.45845 20.81 8.81275 20.8125V20.8125ZM15.1877 14.4375C14.5413 14.4375 13.9213 14.1807 13.4642 13.7236C13.0071 13.2665 12.7502 12.6465 12.7502 12C12.7502 11.3535 13.0071 10.7335 13.4642 10.2764C13.9213 9.81931 14.5413 9.5625 15.1877 9.5625C15.8342 9.5625 16.4542 9.81931 16.9113 10.2764C17.3684 10.7335 17.6252 11.3535 17.6252 12C17.6252 12.6465 17.3684 13.2665 16.9113 13.7236C16.4542 14.1807 15.8342 14.4375 15.1877 14.4375V14.4375Z" fill="#667085"/>
</svg>
