<svg width="139" height="86" viewBox="0 0 139 86" fill="none" xmlns="http://www.w3.org/2000/svg">
<path d="M98.7147 36.1691C98.3735 36.1691 98.1069 36.0304 97.9149 35.7532C97.723 35.4759 97.627 35.1346 97.627 34.7294C97.627 33.6203 98.2882 32.4046 99.6105 31.0823C101.189 29.632 102.756 28.7682 104.313 28.4909C104.783 27.3392 105.017 26.4434 105.017 25.8036C105.017 25.0144 104.729 24.6199 104.153 24.6199C103.514 24.6199 102.511 25.1211 101.146 26.1235C99.7598 27.2112 98.6188 28.5229 97.723 30.0585C97.6163 30.3358 97.4564 30.5171 97.2431 30.6024C97.1578 30.6451 97.0725 30.6664 96.9872 30.6664C96.9019 30.6664 96.8272 30.6451 96.7632 30.6024C96.6779 30.5384 96.6353 30.4424 96.6353 30.3145L96.6672 30.0585C98.0962 25.8356 99.5146 22.4017 100.922 19.757C102.351 17.091 103.834 14.6276 105.369 12.3668C107.971 8.91166 110.061 7.18408 111.64 7.18408C112.365 7.18408 112.727 7.66397 112.727 8.62373C112.727 8.66639 112.717 9.0503 112.695 9.77546C112.695 10.5006 111.565 12.3348 109.304 15.2781C107.257 17.8162 105.071 20.1836 102.746 22.3804C101.338 23.7241 100.282 24.6305 99.5785 25.0997C99.2586 25.7822 98.8854 26.71 98.4588 27.8831C99.1413 27.0513 99.9091 26.3048 100.762 25.6436C102.319 24.4706 103.588 23.884 104.569 23.884C105.572 23.884 106.073 24.4172 106.073 25.4836C106.073 26.1662 105.87 27.0833 105.465 28.235C106.83 28.0857 108.014 27.8084 109.016 27.4032C109.912 27.0406 110.691 26.3261 111.352 25.2597C111.437 25.1531 111.533 25.0997 111.64 25.0997C111.682 25.0997 111.736 25.1317 111.8 25.1957C111.885 25.2384 111.928 25.313 111.928 25.4197L111.896 25.5796C111.17 26.7527 110.328 27.5312 109.368 27.9151C108.43 28.299 107.395 28.5762 106.265 28.7469C105.902 28.7895 105.54 28.8535 105.177 28.9388C104.601 30.2612 103.887 31.5302 103.034 32.7459C101.37 35.028 99.9305 36.1691 98.7147 36.1691ZM99.8985 24.14C100.666 23.5215 101.669 22.6043 102.906 21.3886C104.847 19.5118 106.819 17.3576 108.824 14.9262C111.021 12.0469 112.12 10.0101 112.12 8.81569C112.12 8.32514 111.928 8.07987 111.544 8.07987C111.309 8.07987 110.818 8.27182 110.072 8.65573C109.326 9.03963 108.024 10.4686 106.169 12.9427C105.081 14.4783 103.94 16.2912 102.746 18.3814C101.573 20.4502 100.624 22.3697 99.8985 24.14ZM98.6828 35.2093C98.96 35.2093 99.3759 35.0173 99.9305 34.6334C100.592 34.1855 101.349 33.3644 102.202 32.17C102.863 31.2316 103.45 30.2505 103.961 29.2267C102.639 29.5467 101.338 30.3038 100.058 31.4982C99.3973 32.1594 98.928 32.7779 98.6508 33.3537C98.3735 33.9083 98.2349 34.3348 98.2349 34.6334C98.2349 35.0173 98.3842 35.2093 98.6828 35.2093Z" fill="#121212"/>
<path d="M98.9332 25.6116C98.3573 26.2941 97.6855 26.9766 96.9177 27.6591C96.1712 28.3203 95.446 28.8855 94.7422 29.3547C92.6734 30.5917 91.3084 30.837 90.6472 30.0905C90.0074 29.344 89.9007 28.1923 90.3273 26.6354C89.3888 27.5951 88.4397 28.3949 87.48 29.0348C85.923 29.9732 84.8139 30.2718 84.1528 29.9306C83.4916 29.5893 83.2037 28.9068 83.289 27.8831C83.353 26.838 83.6942 25.7502 84.3127 24.6199C84.9313 23.5321 85.6671 22.743 86.5202 22.2524C87.3947 21.8472 87.9918 21.8472 88.3118 22.2524C88.653 22.6363 88.5037 23.1589 87.8639 23.82C87.5226 24.1613 87.0961 24.4599 86.5842 24.7158C86.0723 24.9504 85.5604 25.0891 85.0486 25.1317C84.622 25.9422 84.3447 26.7527 84.2168 27.5631C84.0888 28.3736 84.2381 28.9281 84.6646 29.2267C85.0912 29.5253 85.923 29.3014 87.16 28.5549C87.7786 28.1497 88.4077 27.6485 89.0476 27.0513C89.7088 26.4541 90.3059 25.8676 90.8392 25.2917C90.8392 25.2704 90.8392 25.2597 90.8392 25.2597C90.9671 24.9824 91.1058 24.7158 91.2551 24.4599C91.9376 23.2655 92.748 22.3911 93.6865 21.8365C94.6462 21.3886 95.3074 21.3886 95.67 21.8365C96.0539 22.2631 95.8833 22.8496 95.1581 23.5961C94.7742 23.9587 94.305 24.2786 93.7504 24.5559C93.1959 24.8331 92.6414 24.9931 92.0869 25.0358C91.575 25.9315 91.2444 26.838 91.0951 27.7551C90.9671 28.6509 91.1377 29.2694 91.607 29.6106C92.0975 29.9306 93.0253 29.6746 94.3903 28.8428C95.0941 28.3949 95.8086 27.8404 96.5338 27.1792C97.2589 26.5181 97.9094 25.8569 98.4853 25.1957C98.528 25.1317 98.5919 25.0997 98.6773 25.0997C98.7626 25.0784 98.8372 25.0997 98.9012 25.1637C98.9652 25.2277 98.9972 25.3024 98.9972 25.3877C99.0185 25.473 98.9972 25.5476 98.9332 25.6116ZM94.2303 22.6683C93.6118 22.9669 93.036 23.5321 92.5028 24.3639C93.3772 24.1293 94.1237 23.7241 94.7422 23.1482C95.1048 22.7856 95.2221 22.5617 95.0941 22.4764C94.9875 22.3911 94.6995 22.455 94.2303 22.6683ZM87.0001 22.9882C86.4669 23.2655 85.9443 23.7774 85.4325 24.5239C86.2429 24.3106 86.9254 23.948 87.48 23.4361C87.7999 23.1162 87.9065 22.9136 87.7999 22.8283C87.6932 22.743 87.4266 22.7963 87.0001 22.9882Z" fill="#121212"/>
<path d="M72.0188 35.3049C70.7604 35.3049 70.1312 34.537 70.1312 33.0014C70.1312 32.1056 70.3445 30.9219 70.7711 29.4503C72.1787 25.2699 74.8128 19.9912 78.6732 13.6141C76.0711 13.0169 74.1729 12.7183 72.9785 12.7183C72.0401 12.7183 71.5389 12.9743 71.4749 13.4861C71.4749 13.5714 71.4429 13.6461 71.3789 13.7101C71.3149 13.7741 71.2403 13.8061 71.155 13.8061C70.9417 13.7421 70.8351 13.6354 70.8351 13.4861C70.9417 12.569 71.6242 12.1105 72.8826 12.1105H73.2985C74.8767 12.2171 76.7536 12.5264 78.9291 13.0382H78.9931C81.3178 9.2205 82.5122 7.31163 82.5762 7.31163C82.6402 7.07702 82.7895 6.95972 83.0241 6.95972L83.1841 6.99171C83.4187 7.05569 83.536 7.21565 83.536 7.47159C83.536 7.57823 83.3227 7.96214 82.8961 8.62331C82.2563 9.62574 81.2965 11.172 80.0168 13.2622L81.8724 13.6141C83.1521 13.87 84.2611 13.998 85.1996 13.998C85.2849 13.998 85.5835 13.998 86.0954 13.998C86.6286 13.9767 86.9698 13.6781 87.1191 13.1022C87.1191 12.9316 87.2364 12.8463 87.471 12.8463C87.6417 12.8889 87.727 13.0169 87.727 13.2302C87.535 14.0407 86.8845 14.4886 85.7754 14.5739L85.0076 14.6059C83.7919 14.6059 82.0217 14.3499 79.6969 13.838C75.8152 20.2152 73.1278 25.5152 71.6349 29.7382C71.2083 31.0605 70.995 32.1163 70.995 32.9054C70.995 34.0145 71.4429 34.569 72.3387 34.569C73.2558 34.569 74.5248 33.9825 76.1458 32.8095C77.8733 31.5298 79.4836 30.1434 80.9766 28.6505C82.4909 27.1575 83.504 26.0804 84.0159 25.4192C84.0585 25.3553 84.1225 25.3126 84.2078 25.2913C84.2931 25.2913 84.3678 25.3233 84.4318 25.3873C84.5171 25.4299 84.5597 25.5152 84.5597 25.6432C84.5597 25.8565 83.5253 26.9975 81.4565 29.0664C79.9208 30.602 78.2786 32.0096 76.5297 33.2893C74.6528 34.633 73.1492 35.3049 72.0188 35.3049Z" fill="#121212"/>
<path d="M62.1544 30.2185C61.4719 30.2185 61.1307 29.7813 61.1307 28.9068C61.1307 28.6936 61.1947 28.2137 61.3226 27.4672C61.4506 26.6994 62.1651 25.0464 63.4661 22.5084C63.5514 22.3164 63.7007 22.2205 63.914 22.2205C63.978 22.2205 64.0633 22.2525 64.1699 22.3164C64.2766 22.3591 64.3406 22.4231 64.3619 22.5084C64.4045 22.5937 64.4259 22.6684 64.4259 22.7323C64.4259 22.7963 64.4045 22.871 64.3619 22.9563C63.914 23.7881 63.4874 24.6839 63.0822 25.6436C62.3997 27.1793 62.0585 28.2563 62.0585 28.8748C62.0585 29.1948 62.1758 29.3547 62.4104 29.3547C62.9222 29.3547 63.6581 28.7149 64.6178 27.4352C65.5776 26.1342 66.3454 24.7372 66.9213 23.2442L67.0492 22.9563C67.1132 22.743 67.2625 22.6364 67.4971 22.6364L67.6891 22.6684C67.9024 22.7323 68.009 22.871 68.009 23.0843C68.009 23.1482 67.9983 23.2122 67.977 23.2762C67.9557 23.3402 67.9237 23.4362 67.881 23.5641C67.2625 25.313 66.9533 26.6034 66.9533 27.4352C66.9533 28.2243 67.2305 28.6189 67.7851 28.6189C68.2116 28.6189 68.8408 28.331 69.6726 27.7551C70.5044 27.1579 71.4322 26.3048 72.4559 25.1957C72.5199 25.1318 72.5839 25.0998 72.6479 25.0998C72.7332 25.0998 72.8079 25.1318 72.8718 25.1957C72.9358 25.2597 72.9678 25.3344 72.9678 25.4197C72.9678 25.505 72.9358 25.5796 72.8718 25.6436C70.4191 28.1604 68.5422 29.4187 67.2412 29.4187C66.772 29.4187 66.4201 29.1095 66.1854 28.4909C66.1001 28.235 66.0575 27.9151 66.0575 27.5312C66.0575 27.1259 66.1108 26.6567 66.2174 26.1235C65.8762 26.6994 65.5243 27.2539 65.1617 27.7871C63.8394 29.4081 62.8369 30.2185 62.1544 30.2185Z" fill="#121212"/>
<path d="M14.7586 48.1658C13.4149 48.1658 12.1672 47.6326 11.0155 46.5662C9.86379 45.4998 9.20262 43.8468 9.03199 41.6074C9.01066 41.3514 9 41.0848 9 40.8076C9 38.8241 9.61852 36.7019 10.8556 34.4411C12.1566 32.0737 14.2681 30.1648 17.19 28.7145L17.318 28.6825C17.3606 28.6825 17.4246 28.7038 17.5099 28.7465C17.5953 28.7678 17.6379 28.8531 17.6379 29.0024C17.6379 29.1304 17.5739 29.2264 17.446 29.2904C14.652 30.6554 12.6365 32.4789 11.3994 34.761C10.205 36.9152 9.60785 38.9307 9.60785 40.8076C9.60785 40.9782 9.63984 41.618 9.70383 42.7271C9.78914 43.8362 10.4183 44.9346 11.5914 46.0223C12.4445 46.8114 13.4789 47.206 14.6946 47.206C15.1425 47.206 15.953 47.0674 17.126 46.7901C18.3204 46.5342 19.9947 45.1479 22.1488 42.6311C24.4523 39.7092 26.5957 36.1367 28.5793 31.9137C30.5628 27.6907 32.2904 23.5424 33.762 19.4687C35.2336 15.3737 36.364 12.0679 37.1532 9.55114C34.3165 14.4353 31.7145 17.6665 29.3471 19.2448C28.7072 19.6714 28.11 19.8846 27.5555 19.8846C26.873 19.8846 26.2438 19.5754 25.668 18.9569C25.5826 18.8502 25.54 18.7436 25.54 18.6369C25.54 18.573 25.572 18.477 25.636 18.349C25.7213 18.1997 25.8706 18.1251 26.0839 18.1251C26.2118 18.1251 26.3291 18.189 26.4358 18.317C26.7984 18.7009 27.2036 18.8929 27.6515 18.8929C28.1207 18.8929 28.7819 18.5943 29.635 17.9971C30.5095 17.3999 31.5545 16.3228 32.7702 14.7659C34.0073 13.1876 35.1163 11.5986 36.0974 9.99903C37.0999 8.39942 37.8144 7.18371 38.2409 6.35191C38.3049 6.18129 38.3795 6.08531 38.4649 6.06398C38.5502 6.02133 38.6248 6 38.6888 6C38.7954 6 38.9021 6.04266 39.0087 6.12797C39.1367 6.19195 39.2007 6.31992 39.2007 6.51188C39.2007 6.59719 39.1687 6.69316 39.1047 6.79981C39.062 6.90645 38.8061 7.68493 38.3369 9.13524C36.2467 15.8963 33.8366 22.4334 31.1066 28.7465C34.5618 22.6253 38.0063 17.1546 41.4401 12.3345C44.2341 8.60204 46.2603 6.73582 47.5187 6.73582C48.2652 6.73582 48.6384 7.49297 48.6384 9.00727C48.6384 10.287 48.3718 12.1318 47.8386 14.5419C46.6016 19.874 44.6607 26.2084 42.016 33.5453L43.1037 31.6898C46.7295 25.3553 49.8114 20.3219 52.3495 16.5894C54.0344 14.158 55.4954 12.4198 56.7324 11.3747C57.3723 10.8415 57.8948 10.5749 58.3001 10.5749C59.0465 10.5749 59.4198 11.3107 59.4198 12.7824C59.4198 14.1047 59.1319 16.0562 58.556 18.6369C58.1508 20.4712 57.6815 22.444 57.1483 24.5555L57.0843 24.7795C54.7383 33.9719 53.5652 40.1251 53.5652 43.239C53.5652 44.3267 53.6718 45.2438 53.8851 45.9903C54.0984 46.7581 54.5463 47.142 55.2288 47.142C55.4634 47.142 55.7193 47.0994 55.9966 47.0141L56.1566 46.9821C56.4765 46.9821 56.6365 47.1634 56.6365 47.5259C56.6365 47.7392 56.5298 47.8779 56.3165 47.9418C55.8686 48.0698 55.4634 48.1338 55.1008 48.1338C53.9918 48.1338 53.2559 47.5259 52.8934 46.3102C52.6801 45.4784 52.5734 44.4867 52.5734 43.335C52.5734 41.6287 52.8827 39.144 53.5012 35.8808C54.1197 32.6176 54.9942 28.8425 56.1246 24.5555C56.6791 22.3587 57.1697 20.3325 57.5962 18.477C58.2147 15.7896 58.524 13.8808 58.524 12.7504C58.524 11.8119 58.3214 11.3427 57.9162 11.3427C57.1483 11.3427 55.4847 13.1769 52.9254 16.8454C50.4513 20.4498 47.3587 25.4939 43.6476 31.9777C42.4746 34.0252 41.5894 35.5075 40.9922 36.4246L40.7683 37.0325C40.7043 37.2458 40.5444 37.3524 40.2884 37.3524L40.1285 37.3204C39.9152 37.2138 39.8085 37.0645 39.8085 36.8725C39.8085 36.7872 40.2884 35.4222 41.2482 32.7775C42.144 30.3034 43.1571 27.3602 44.2875 23.9477C46.7402 16.4188 47.9666 11.4813 47.9666 9.13524C47.9666 8.0475 47.7 7.50364 47.1668 7.50364C46.1643 7.50364 44.4154 9.20989 41.92 12.6224C38.8914 16.824 34.9031 23.2865 29.9549 32.0097C28.8245 33.9719 27.8114 35.7101 26.9157 37.2244C25.636 39.4639 24.303 41.4367 22.9166 43.143C20.5705 45.9157 18.3737 47.5259 16.3262 47.9738C15.7717 48.1018 15.2492 48.1658 14.7586 48.1658Z" fill="#121212"/>
<path d="M127.487 59.8234H127.44C127.299 59.7765 127.229 59.6279 127.229 59.3777C127.229 58.971 127.354 58.7364 127.604 58.6738C127.823 58.6895 127.932 58.8146 127.932 59.0492C127.932 59.1274 127.917 59.2291 127.886 59.3542C127.854 59.4637 127.8 59.5732 127.721 59.6826C127.643 59.7765 127.565 59.8234 127.487 59.8234ZM117.093 77.6538C116.593 77.6538 116.225 77.4113 115.991 76.9265C115.803 76.5824 115.709 76.1757 115.709 75.7065C115.709 75.1904 115.874 74.4474 116.202 73.4777C116.515 72.508 117.359 71.3975 118.736 70.1462C119.659 69.3642 120.62 68.7073 121.621 68.1755C122.622 67.6281 123.623 67.1511 124.624 66.7444C125.735 64.2263 126.486 62.2164 126.877 60.7149C126.955 60.5116 127.111 60.4099 127.346 60.4099C127.534 60.4099 127.627 60.5038 127.627 60.6915L127.604 60.8322C127.229 62.2243 126.564 64.0699 125.61 66.369C126.267 66.1188 127.049 65.7278 127.956 65.196C128.863 64.6642 129.747 63.9917 130.607 63.1783C130.638 63.1158 130.709 63.0845 130.818 63.0845C130.849 63.0845 130.889 63.1001 130.935 63.1314C130.982 63.1627 131.006 63.2253 131.006 63.3191L130.982 63.4364C129.841 64.4531 128.832 65.2038 127.956 65.6887C127.096 66.1735 126.243 66.588 125.399 66.9321L125.328 66.9556C124.296 69.3486 123.084 71.6008 121.692 73.7123C120.237 75.7925 119.017 77.036 118.032 77.4426C117.688 77.5834 117.375 77.6538 117.093 77.6538ZM117.093 76.9265C117.328 76.9265 117.727 76.7935 118.29 76.5276C118.853 76.2617 119.784 75.1825 121.082 73.29C121.442 72.7582 121.817 72.1561 122.208 71.4835C123.037 70.0446 123.749 68.676 124.343 67.3779C122.482 68.0817 120.691 69.1296 118.97 70.5216C117.797 71.6165 117.007 72.7113 116.601 73.8062C116.335 74.51 116.202 75.1122 116.202 75.6127C116.202 75.8942 116.241 76.1444 116.319 76.3634C116.476 76.7388 116.734 76.9265 117.093 76.9265Z" fill="#121212"/>
<path d="M121.06 67.636L120.849 67.6126C120.52 67.4874 120.356 67.2059 120.356 66.768C120.356 66.0172 120.677 64.9615 121.318 63.6007C120.989 63.9292 120.653 64.2264 120.309 64.4923C119.324 65.2274 118.596 65.5949 118.127 65.5949C117.955 65.5949 117.822 65.548 117.728 65.4542C117.556 65.3134 117.47 65.1179 117.47 64.8676C117.47 64.7269 117.533 64.4766 117.658 64.1169C117.783 63.7572 118.072 63.3192 118.526 62.8031C118.98 62.2869 119.464 61.9037 119.981 61.6535C120.231 61.544 120.465 61.4893 120.684 61.4893C120.935 61.4893 121.177 61.5675 121.412 61.7239C121.49 61.8021 121.529 61.9037 121.529 62.0289C121.529 62.1071 121.498 62.1853 121.435 62.2635C121.373 62.3417 121.279 62.3808 121.154 62.3808C121.075 62.3808 120.997 62.3573 120.919 62.3104C120.856 62.2478 120.77 62.2165 120.661 62.2165C120.52 62.2165 120.317 62.2948 120.051 62.4512C119.801 62.5919 119.511 62.8344 119.183 63.1784C118.854 63.5069 118.596 63.8354 118.409 64.1638C118.284 64.3828 118.221 64.5705 118.221 64.7269C118.221 64.9302 118.299 65.0319 118.456 65.0319C118.721 65.0319 119.245 64.7347 120.027 64.1403C120.982 63.3896 121.709 62.6154 122.209 61.8177C122.241 61.7551 122.264 61.716 122.28 61.7004C122.311 61.6691 122.327 61.6457 122.327 61.63C122.405 61.5362 122.507 61.4893 122.632 61.4893C122.679 61.4893 122.741 61.5127 122.819 61.5596C122.898 61.6066 122.944 61.6613 122.96 61.7239C122.976 61.7864 122.984 61.8412 122.984 61.8881C122.984 61.935 122.968 61.9898 122.937 62.0523C122.765 62.3026 122.499 62.7796 122.139 63.4834C121.779 64.1873 121.482 64.8911 121.247 65.5949C121.122 65.9547 121.06 66.2518 121.06 66.4864C121.06 66.8305 121.193 67.0026 121.459 67.0026C121.771 67.0026 122.241 66.768 122.866 66.2988C123.492 65.8295 124.133 65.2587 124.79 64.5861C125.463 63.9136 125.901 63.4443 126.104 63.1784C126.151 63.1159 126.206 63.0846 126.268 63.0846C126.362 63.0846 126.44 63.1315 126.503 63.2254L126.526 63.3192C126.526 63.4913 126.01 64.07 124.978 65.0553C124.258 65.7592 123.508 66.3848 122.725 66.9322C122.053 67.4014 121.498 67.636 121.06 67.636Z" fill="#121212"/>
<path d="M111.658 69.4191C111.173 69.4191 110.931 69.1688 110.931 68.6683C110.931 68.5901 110.954 68.3946 111.001 68.0818C111.032 67.769 111.337 67.1121 111.916 66.1111C112.338 65.4229 112.651 64.8051 112.854 64.2576C112.886 64.1482 112.901 64.0543 112.901 63.9761C112.901 63.7728 112.76 63.6164 112.479 63.5069C112.385 63.4756 112.291 63.4287 112.197 63.3661C111.932 63.1784 111.799 62.8969 111.799 62.5215C111.799 61.9585 112.041 61.4501 112.526 60.9966C112.901 60.6838 113.253 60.5273 113.582 60.5273C113.879 60.5273 114.074 60.6446 114.168 60.8793L114.192 61.02C114.192 61.458 113.746 62.0992 112.854 62.9438C113.386 63.1002 113.652 63.4287 113.652 63.9292C113.652 64.414 113.284 65.2586 112.549 66.463C112.002 67.4327 111.728 68.1131 111.728 68.5041C111.728 68.7387 111.838 68.856 112.057 68.856C112.448 68.856 113.167 68.4181 114.215 67.5422C115.591 66.3535 116.929 64.8989 118.227 63.1784C118.258 63.1315 118.305 63.1002 118.368 63.0846C118.43 63.0846 118.485 63.1081 118.532 63.155C118.594 63.1863 118.626 63.241 118.626 63.3192C118.626 63.4287 118.055 64.1403 116.913 65.4542C116.147 66.33 115.349 67.1433 114.52 67.8941C113.3 68.9107 112.346 69.4191 111.658 69.4191ZM112.526 62.6388C113.261 61.9037 113.629 61.4501 113.629 61.2781C113.629 61.2312 113.613 61.2077 113.582 61.2077C113.519 61.2077 113.433 61.239 113.324 61.3016C112.995 61.5049 112.76 61.763 112.62 62.0758C112.557 62.2165 112.526 62.3573 112.526 62.4981V62.6388Z" fill="#121212"/>
<path d="M101.049 68.8089C100.956 68.8089 100.87 68.7855 100.791 68.7385C100.697 68.676 100.651 68.59 100.651 68.4805V68.3866C101.777 64.8362 102.887 61.9505 103.982 59.7295C105.093 57.5085 106.297 55.5144 107.595 53.747C109.503 51.2132 111.036 49.9463 112.193 49.9463C112.741 49.9463 113.015 50.3138 113.015 51.049C113.015 51.0646 113.007 51.3383 112.991 51.8701C112.975 52.3862 112.139 53.7235 110.481 55.8819C109.151 57.5868 107.548 59.3229 105.671 61.0903C104.639 62.0756 103.865 62.7403 103.349 63.0844C102.958 63.9447 102.418 65.3758 101.73 67.3778C103.466 64.9848 104.85 63.452 105.882 62.7794C106.195 62.5918 106.461 62.4979 106.68 62.4979C107.165 62.4979 107.407 62.8968 107.407 63.6944C107.407 63.9916 107.376 64.3357 107.313 64.7267C107.251 65.1177 107.22 65.4462 107.22 65.7121C107.22 66.2595 107.384 66.5332 107.712 66.5332C108.041 66.5332 108.533 66.2986 109.19 65.8294C110.004 65.2507 110.926 64.3904 111.959 63.2487C112.006 63.2017 112.06 63.1705 112.123 63.1548C112.186 63.1548 112.24 63.1783 112.287 63.2252C112.334 63.2565 112.358 63.3034 112.358 63.366C112.358 63.4285 112.334 63.4833 112.287 63.5302C111.224 64.7189 110.27 65.6026 109.425 66.1813C108.565 66.8069 107.877 67.1197 107.36 67.1197L107.079 67.0963C106.688 67.0024 106.492 66.5723 106.492 65.8059C106.492 65.4931 106.524 65.1255 106.586 64.7032C106.617 64.4374 106.633 64.2027 106.633 63.9994C106.633 63.452 106.508 63.1783 106.258 63.1783C106.242 63.1783 106.125 63.2017 105.906 63.2487C105.703 63.2956 105.249 63.7335 104.545 64.5625C103.56 65.673 102.551 66.9946 101.519 68.5274C101.425 68.7151 101.268 68.8089 101.049 68.8089ZM103.607 62.3806C104.17 61.927 104.905 61.2545 105.812 60.363C107.376 58.8458 108.815 57.2661 110.129 55.6238C111.755 53.4967 112.569 52.0187 112.569 51.1897C112.569 50.7987 112.42 50.6032 112.123 50.6032C111.951 50.6032 111.591 50.744 111.044 51.0255C110.496 51.307 109.55 52.355 108.205 54.1693C107.407 55.2954 106.571 56.6249 105.695 58.1576C104.834 59.6748 104.138 61.0824 103.607 62.3806Z" fill="#121212"/>
<path d="M102.817 63.2488C102.864 63.2957 102.887 63.3504 102.887 63.413C102.887 63.4756 102.872 63.5303 102.84 63.5772C102.199 64.3436 101.347 65.1413 100.283 65.9703C99.2351 66.7836 98.1871 67.1746 97.1392 67.1433C96.1851 67.0025 95.6768 66.5255 95.6142 65.7122C95.5517 64.8832 95.7941 63.9917 96.3415 63.0376C96.9046 62.0679 97.6397 61.325 98.5469 60.8088C99.2663 60.4804 99.7668 60.4804 100.048 60.8088C100.346 61.1217 100.236 61.5518 99.7199 62.0992C99.4227 62.3651 99.0161 62.5997 98.4999 62.803C97.9994 63.0064 97.538 63.1237 97.1157 63.1549C96.8968 63.4365 96.7013 63.8197 96.5292 64.3045C96.3572 64.7894 96.3103 65.2586 96.3885 65.7122C96.4667 66.1501 96.7873 66.4317 97.3504 66.5568C98.2419 66.635 99.1803 66.2752 100.166 65.4776C101.167 64.6799 101.941 63.9448 102.488 63.2722C102.535 63.2253 102.582 63.2019 102.629 63.2019C102.692 63.1862 102.754 63.2019 102.817 63.2488ZM99.6026 61.2546C99.4462 61.1451 99.149 61.2077 98.7111 61.4423C98.2731 61.6769 97.843 62.0836 97.4207 62.6623C98.2184 62.4433 98.8049 62.193 99.1803 61.9115C99.5713 61.6143 99.7121 61.3954 99.6026 61.2546Z" fill="#121212"/>
<path d="M61.5142 79.9999C60.5289 79.9999 59.6139 79.6089 58.7693 78.8269C57.9247 78.0449 57.4398 76.8327 57.3147 75.1904C57.2991 75.0028 57.2913 74.8072 57.2913 74.6039C57.2913 73.1493 57.7448 71.5931 58.652 69.9352C59.6061 68.1991 61.1545 66.7992 63.2973 65.7357L63.3911 65.7122C63.4224 65.7122 63.4693 65.7278 63.5319 65.7591C63.5944 65.7748 63.6257 65.8373 63.6257 65.9468C63.6257 66.0407 63.5788 66.111 63.485 66.158C61.436 67.159 59.958 68.4962 59.0508 70.1698C58.175 71.7495 57.737 73.2275 57.737 74.6039C57.737 74.729 57.7605 75.1983 57.8074 76.0116C57.87 76.8249 58.3314 77.6304 59.1916 78.4281C59.8172 79.0068 60.5758 79.2961 61.4673 79.2961C61.7958 79.2961 62.3901 79.1945 63.2503 78.9911C64.1262 78.8034 65.354 77.7868 66.9337 75.9412C68.6229 73.7984 70.1948 71.1786 71.6494 68.0818C73.104 64.9849 74.3709 61.9428 75.4501 58.9554C76.5293 55.9524 77.3582 53.5281 77.9369 51.6825C75.8567 55.2642 73.9486 57.6338 72.2124 58.7912C71.7432 59.104 71.3053 59.2604 70.8986 59.2604C70.3981 59.2604 69.9367 59.0336 69.5144 58.5801C69.4519 58.5019 69.4206 58.4237 69.4206 58.3455C69.4206 58.2985 69.4441 58.2282 69.491 58.1343C69.5535 58.0248 69.663 57.9701 69.8194 57.9701C69.9133 57.9701 69.9993 58.017 70.0775 58.1108C70.3434 58.3924 70.6406 58.5331 70.969 58.5331C71.3131 58.5331 71.798 58.3142 72.4236 57.8762C73.0649 57.4383 73.8313 56.6484 74.7228 55.5067C75.6299 54.3493 76.4432 53.184 77.1627 52.011C77.8978 50.8379 78.4218 49.9464 78.7346 49.3364C78.7815 49.2113 78.8363 49.1409 78.8988 49.1253C78.9614 49.094 79.0161 49.0784 79.0631 49.0784C79.1413 49.0784 79.2195 49.1096 79.2977 49.1722C79.3915 49.2191 79.4384 49.313 79.4384 49.4537C79.4384 49.5163 79.415 49.5867 79.368 49.6649C79.3368 49.7431 79.1491 50.314 78.805 51.3775C77.2722 56.3356 75.5048 61.1295 73.5028 65.7591C76.0366 61.2703 78.5626 57.2584 81.0807 53.7236C83.1296 50.9865 84.6155 49.618 85.5383 49.618C86.0857 49.618 86.3594 50.1732 86.3594 51.2837C86.3594 52.2221 86.1639 53.5751 85.7729 55.3425C84.8657 59.2526 83.4424 63.8979 81.503 69.2783L82.3007 67.9175C84.9596 63.2723 87.2197 59.5811 89.0809 56.844C90.3165 55.0609 91.3879 53.7862 92.295 53.0198C92.7643 52.6288 93.1475 52.4333 93.4446 52.4333C93.9921 52.4333 94.2658 52.9729 94.2658 54.0521C94.2658 55.0218 94.0546 56.4529 93.6323 58.3455C93.3352 59.6906 92.9911 61.1373 92.6 62.6857L92.5531 62.85C90.8326 69.5911 89.9724 74.1034 89.9724 76.387C89.9724 77.1846 90.0506 77.8572 90.207 78.4046C90.3634 78.9677 90.6919 79.2492 91.1924 79.2492C91.3644 79.2492 91.5521 79.2179 91.7554 79.1553L91.8727 79.1319C92.1074 79.1319 92.2247 79.2648 92.2247 79.5307C92.2247 79.6871 92.1465 79.7888 91.9901 79.8357C91.6616 79.9296 91.3644 79.9765 91.0985 79.9765C90.2852 79.9765 89.7456 79.5307 89.4797 78.6392C89.3233 78.0292 89.2451 77.3019 89.2451 76.4573C89.2451 75.2061 89.4719 73.3839 89.9255 70.9909C90.3791 68.5979 91.0203 65.8295 91.8493 62.6857C92.2559 61.0748 92.6157 59.5889 92.9285 58.2282C93.3821 56.2574 93.6089 54.8576 93.6089 54.0286C93.6089 53.3404 93.4603 52.9964 93.1631 52.9964C92.6 52.9964 91.3801 54.3414 89.5032 57.0316C87.6889 59.6749 85.421 63.3739 82.6995 68.1287C81.8393 69.6302 81.1902 70.7172 80.7522 71.3898L80.588 71.8355C80.5411 71.9919 80.4238 72.0701 80.2361 72.0701L80.1188 72.0467C79.9624 71.9685 79.8842 71.859 79.8842 71.7182C79.8842 71.6557 80.2361 70.6547 80.9399 68.7152C81.5968 66.9009 82.3398 64.7425 83.1687 62.24C84.9674 56.7188 85.8667 53.098 85.8667 51.3775C85.8667 50.5799 85.6712 50.181 85.2802 50.181C84.5451 50.181 83.2626 51.4323 81.4326 53.9348C79.2116 57.016 76.2868 61.7551 72.6582 68.1521C71.8293 69.5911 71.0863 70.8658 70.4294 71.9763C69.491 73.6186 68.5134 75.0653 67.4968 76.3166C65.7763 78.3499 64.1653 79.5307 62.6638 79.8592C62.2572 79.953 61.874 79.9999 61.5142 79.9999Z" fill="#121212"/>
</svg>
