<svg width="47" height="29" viewBox="0 0 47 29" fill="none" xmlns="http://www.w3.org/2000/svg">
<path d="M33.309 13.1922C33.1937 13.1922 33.1036 13.1454 33.0388 13.0517C32.9739 12.9581 32.9415 12.8428 32.9415 12.7059C32.9415 12.3312 33.1649 11.9205 33.6116 11.4737C34.1448 10.9838 34.6744 10.6919 35.2004 10.5983C35.3589 10.2092 35.4382 9.90654 35.4382 9.69038C35.4382 9.42378 35.3409 9.29048 35.1464 9.29048C34.9302 9.29048 34.5915 9.45981 34.1304 9.79846C33.662 10.1659 33.2766 10.6091 32.9739 11.1279C32.9379 11.2215 32.8839 11.2828 32.8118 11.3116C32.783 11.326 32.7542 11.3332 32.7253 11.3332C32.6965 11.3332 32.6713 11.326 32.6497 11.3116C32.6209 11.29 32.6064 11.2576 32.6064 11.2143L32.6173 11.1279C33.1 9.70119 33.5792 8.54111 34.0547 7.64764C34.5375 6.74696 35.0383 5.91473 35.5571 5.15095C36.4361 3.98367 37.1423 3.40002 37.6755 3.40002C37.9205 3.40002 38.043 3.56215 38.043 3.88639C38.043 3.9008 38.0394 4.0305 38.0321 4.27549C38.0321 4.52047 37.6503 5.14014 36.8865 6.13449C36.1948 6.99194 35.4562 7.79175 34.6708 8.53391C34.1952 8.98785 33.8386 9.29408 33.6008 9.4526C33.4927 9.68318 33.3666 9.99661 33.2225 10.3929C33.4531 10.1119 33.7125 9.85971 34.0007 9.63634C34.5267 9.24004 34.9554 9.04189 35.2869 9.04189C35.6255 9.04189 35.7949 9.22203 35.7949 9.5823C35.7949 9.81287 35.7264 10.1227 35.5895 10.5118C36.0506 10.4614 36.4506 10.3677 36.7892 10.2308C37.0918 10.1083 37.3548 9.86691 37.5782 9.50664C37.607 9.47061 37.6395 9.4526 37.6755 9.4526C37.6899 9.4526 37.7079 9.46341 37.7295 9.48503C37.7583 9.49944 37.7728 9.52466 37.7728 9.56068L37.7619 9.61472C37.517 10.011 37.2323 10.274 36.9081 10.4037C36.5911 10.5334 36.2416 10.6271 35.8597 10.6847C35.7372 10.6991 35.6147 10.7208 35.4922 10.7496C35.2977 11.1963 35.0563 11.625 34.7681 12.0358C34.2061 12.8067 33.7197 13.1922 33.309 13.1922ZM33.7089 9.12836C33.9683 8.9194 34.3069 8.60956 34.7248 8.19885C35.3805 7.56477 36.047 6.83702 36.7244 6.0156C37.4665 5.04287 37.8376 4.35475 37.8376 3.95124C37.8376 3.78552 37.7728 3.70265 37.6431 3.70265C37.5638 3.70265 37.3981 3.7675 37.1459 3.8972C36.8937 4.0269 36.4542 4.50966 35.8273 5.3455C35.4598 5.86429 35.0743 6.47675 34.6708 7.18289C34.2745 7.88181 33.9539 8.5303 33.7089 9.12836ZM33.2982 12.868C33.3918 12.868 33.5323 12.8031 33.7197 12.6734C33.9431 12.5221 34.1989 12.2447 34.4871 11.8412C34.7104 11.5242 34.9086 11.1927 35.0815 10.8469C34.6348 10.9549 34.1952 11.2107 33.7629 11.6142C33.5396 11.8376 33.381 12.0466 33.2874 12.2411C33.1937 12.4285 33.1469 12.5726 33.1469 12.6734C33.1469 12.8031 33.1973 12.868 33.2982 12.868Z" fill="#121212"/>
<path d="M33.3828 9.62554C33.1882 9.85612 32.9613 10.0867 32.7019 10.3173C32.4497 10.5406 32.2047 10.7316 31.9669 10.8901C31.268 11.308 30.8068 11.3909 30.5835 11.1387C30.3673 10.8865 30.3313 10.4974 30.4754 9.97141C30.1584 10.2957 29.8377 10.5659 29.5135 10.782C28.9875 11.0991 28.6128 11.1999 28.3894 11.0846C28.166 10.9694 28.0688 10.7388 28.0976 10.3929C28.1192 10.0399 28.2345 9.67238 28.4435 9.29049C28.6524 8.92301 28.901 8.65641 29.1892 8.49069C29.4846 8.35378 29.6864 8.35378 29.7945 8.49069C29.9098 8.62038 29.8593 8.79692 29.6432 9.02029C29.5279 9.13557 29.3838 9.23645 29.2108 9.32292C29.0379 9.40218 28.865 9.44901 28.692 9.46342C28.5479 9.73723 28.4543 10.011 28.411 10.2848C28.3678 10.5587 28.4182 10.746 28.5623 10.8469C28.7065 10.9477 28.9875 10.8721 29.4054 10.6199C29.6143 10.483 29.8269 10.3137 30.0431 10.1119C30.2664 9.91016 30.4682 9.71201 30.6483 9.51746C30.6483 9.51026 30.6483 9.50665 30.6483 9.50665C30.6916 9.41298 30.7384 9.32292 30.7888 9.23645C31.0194 8.83295 31.2932 8.53752 31.6102 8.35018C31.9345 8.19887 32.1579 8.19887 32.2804 8.35018C32.4101 8.49429 32.3524 8.69244 32.1074 8.94463C31.9777 9.06712 31.8192 9.1752 31.6319 9.26887C31.4445 9.36255 31.2572 9.41659 31.0698 9.431C30.8969 9.73363 30.7852 10.0399 30.7348 10.3497C30.6916 10.6523 30.7492 10.8613 30.9077 10.9766C31.0734 11.0846 31.3869 10.9982 31.848 10.7172C32.0858 10.5659 32.3272 10.3785 32.5722 10.1551C32.8172 9.93178 33.0369 9.70841 33.2315 9.48504C33.2459 9.46342 33.2675 9.45261 33.2963 9.45261C33.3251 9.44541 33.3504 9.45261 33.372 9.47423C33.3936 9.49585 33.4044 9.52107 33.4044 9.54989C33.4116 9.57871 33.4044 9.60393 33.3828 9.62554ZM31.794 8.63119C31.585 8.73207 31.3905 8.92301 31.2103 9.20403C31.5058 9.12477 31.758 8.98786 31.9669 8.79331C32.0894 8.67082 32.129 8.59517 32.0858 8.56634C32.0498 8.53752 31.9525 8.55914 31.794 8.63119ZM29.3513 8.73927C29.1712 8.83295 28.9947 9.00588 28.8217 9.25807C29.0955 9.18601 29.3261 9.06352 29.5135 8.89059C29.6215 8.78251 29.6576 8.71406 29.6215 8.68523C29.5855 8.65641 29.4955 8.67443 29.3513 8.73927Z" fill="#121212"/>
<path d="M24.2901 12.9003C23.865 12.9003 23.6524 12.6409 23.6524 12.1221C23.6524 11.8194 23.7245 11.4195 23.8686 10.9224C24.3441 9.5101 25.234 7.72675 26.5382 5.57232C25.6591 5.37057 25.0178 5.26969 24.6143 5.26969C24.2973 5.26969 24.128 5.35616 24.1063 5.52909C24.1063 5.55791 24.0955 5.58313 24.0739 5.60474C24.0523 5.62636 24.0271 5.63717 23.9983 5.63717C23.9262 5.61555 23.8902 5.57952 23.8902 5.52909C23.9262 5.21925 24.1568 5.06433 24.5819 5.06433H24.7224C25.2556 5.10036 25.8897 5.20484 26.6247 5.37777H26.6463C27.4317 4.088 27.8352 3.44311 27.8568 3.44311C27.8784 3.36385 27.9288 3.32422 28.0081 3.32422L28.0621 3.33503C28.1414 3.35664 28.181 3.41068 28.181 3.49715C28.181 3.53318 28.109 3.66287 27.9649 3.88624C27.7487 4.2249 27.4245 4.74729 26.9921 5.45343L27.619 5.57232C28.0513 5.65878 28.426 5.70202 28.7431 5.70202C28.7719 5.70202 28.8728 5.70202 29.0457 5.70202C29.2258 5.69481 29.3411 5.59393 29.3915 5.39939C29.3915 5.34174 29.4312 5.31292 29.5104 5.31292C29.5681 5.32733 29.5969 5.37057 29.5969 5.44262C29.5321 5.71643 29.3123 5.86774 28.9376 5.89656L28.6782 5.90737C28.2675 5.90737 27.6694 5.82091 26.884 5.64798C25.5727 7.8024 24.6648 9.59296 24.1604 11.0196C24.0163 11.4664 23.9442 11.823 23.9442 12.0896C23.9442 12.4643 24.0955 12.6517 24.3982 12.6517C24.708 12.6517 25.1367 12.4535 25.6843 12.0572C26.268 11.6249 26.812 11.1565 27.3164 10.6522C27.828 10.1478 28.1702 9.7839 28.3432 9.56053C28.3576 9.53892 28.3792 9.52451 28.408 9.5173C28.4368 9.5173 28.462 9.52811 28.4837 9.54973C28.5125 9.56414 28.5269 9.59296 28.5269 9.63619C28.5269 9.70825 28.1774 10.0937 27.4785 10.7927C26.9597 11.3115 26.4049 11.787 25.814 12.2193C25.18 12.6733 24.672 12.9003 24.2901 12.9003Z" fill="#121212"/>
<path d="M20.9576 11.1819C20.727 11.1819 20.6117 11.0342 20.6117 10.7388C20.6117 10.6667 20.6333 10.5046 20.6765 10.2524C20.7198 9.993 20.9612 9.43458 21.4007 8.57713C21.4295 8.51228 21.48 8.47986 21.552 8.47986C21.5736 8.47986 21.6024 8.49067 21.6385 8.51228C21.6745 8.52669 21.6961 8.54831 21.7033 8.57713C21.7177 8.60595 21.7249 8.63117 21.7249 8.65279C21.7249 8.67441 21.7177 8.69962 21.7033 8.72845C21.552 9.00946 21.4079 9.31209 21.271 9.63633C21.0404 10.1551 20.9251 10.519 20.9251 10.728C20.9251 10.836 20.9648 10.8901 21.044 10.8901C21.217 10.8901 21.4655 10.6739 21.7898 10.2416C22.114 9.80206 22.3734 9.3301 22.568 8.82572L22.6112 8.72845C22.6328 8.65639 22.6833 8.62036 22.7625 8.62036L22.8274 8.63117C22.8994 8.65279 22.9355 8.69962 22.9355 8.77168C22.9355 8.7933 22.9318 8.81491 22.9246 8.83653C22.9174 8.85814 22.9066 8.89057 22.8922 8.9338C22.6833 9.52465 22.5788 9.96058 22.5788 10.2416C22.5788 10.5082 22.6725 10.6415 22.8598 10.6415C23.0039 10.6415 23.2165 10.5442 23.4975 10.3497C23.7785 10.1479 24.0919 9.8597 24.4378 9.48502C24.4594 9.4634 24.481 9.45259 24.5026 9.45259C24.5315 9.45259 24.5567 9.4634 24.5783 9.48502C24.5999 9.50663 24.6107 9.53185 24.6107 9.56068C24.6107 9.5895 24.5999 9.61472 24.5783 9.63633C23.7497 10.4866 23.1156 10.9117 22.6761 10.9117C22.5175 10.9117 22.3986 10.8072 22.3194 10.5983C22.2906 10.5118 22.2762 10.4037 22.2762 10.274C22.2762 10.1371 22.2942 9.97859 22.3302 9.79846C22.2149 9.993 22.096 10.1803 21.9735 10.3605C21.5268 10.9081 21.1881 11.1819 20.9576 11.1819Z" fill="#121212"/>
<path d="M4.94547 17.2452C4.49153 17.2452 4.07001 17.065 3.68091 16.7048C3.29182 16.3445 3.06845 15.7861 3.01081 15.0295C3.0036 14.943 3 14.853 3 14.7593C3 14.0892 3.20896 13.3722 3.62687 12.6085C4.06641 11.8087 4.77975 11.1638 5.76689 10.6738L5.81013 10.663C5.82454 10.663 5.84615 10.6702 5.87497 10.6846C5.9038 10.6918 5.91821 10.7206 5.91821 10.7711C5.91821 10.8143 5.89659 10.8467 5.85336 10.8683C4.90944 11.3295 4.22853 11.9456 3.81061 12.7165C3.40711 13.4443 3.20536 14.1252 3.20536 14.7593C3.20536 14.8169 3.21616 15.0331 3.23778 15.4078C3.2666 15.7825 3.47916 16.1535 3.87546 16.521C4.16368 16.7876 4.51314 16.9209 4.92385 16.9209C5.07517 16.9209 5.34898 16.8741 5.74528 16.7804C6.14878 16.694 6.71441 16.2256 7.44216 15.3754C8.22035 14.3882 8.9445 13.1813 9.6146 11.7546C10.2847 10.3279 10.8684 8.92648 11.3655 7.55024C11.8627 6.16679 12.2446 5.04995 12.5112 4.19971C11.5529 5.84975 10.6738 6.94138 9.874 7.47458C9.65784 7.61869 9.45608 7.69075 9.26874 7.69075C9.03817 7.69075 8.82561 7.58627 8.63106 7.37731C8.60224 7.34128 8.58783 7.30526 8.58783 7.26923C8.58783 7.24761 8.59863 7.21519 8.62025 7.17195C8.64907 7.12152 8.69951 7.0963 8.77156 7.0963C8.8148 7.0963 8.85443 7.11791 8.89045 7.16115C9.01295 7.29084 9.14985 7.35569 9.30117 7.35569C9.45969 7.35569 9.68305 7.25482 9.97127 7.05306C10.2667 6.85131 10.6198 6.48744 11.0305 5.96144C11.4484 5.42824 11.8231 4.89143 12.1545 4.35102C12.4932 3.81061 12.7346 3.3999 12.8787 3.11889C12.9003 3.06125 12.9255 3.02882 12.9543 3.02162C12.9831 3.00721 13.0084 3 13.03 3C13.066 3 13.102 3.01441 13.1381 3.04323C13.1813 3.06485 13.2029 3.10808 13.2029 3.17293C13.2029 3.20175 13.1921 3.23418 13.1705 3.2702C13.1561 3.30623 13.0696 3.56923 12.9111 4.0592C12.205 6.34333 11.3907 8.5518 10.4684 10.6846C11.6357 8.61665 12.7994 6.76845 13.9595 5.14002C14.9034 3.87906 15.5879 3.24859 16.013 3.24859C16.2652 3.24859 16.3913 3.50438 16.3913 4.01597C16.3913 4.44829 16.3013 5.07157 16.1211 5.88578C15.7032 7.68714 15.0475 9.82716 14.154 12.3058L14.5215 11.679C15.7464 9.53894 16.7876 7.83846 17.6451 6.57751C18.2143 5.75608 18.7079 5.16884 19.1258 4.81577C19.342 4.63564 19.5185 4.54557 19.6554 4.54557C19.9076 4.54557 20.0337 4.79416 20.0337 5.29133C20.0337 5.73807 19.9364 6.39737 19.7419 7.26923C19.605 7.8889 19.4464 8.5554 19.2663 9.26874L19.2447 9.3444C18.4521 12.4499 18.0558 14.5287 18.0558 15.5807C18.0558 15.9482 18.0918 16.258 18.1639 16.5102C18.2359 16.7696 18.3872 16.8993 18.6178 16.8993C18.6971 16.8993 18.7835 16.8849 18.8772 16.8561L18.9312 16.8453C19.0393 16.8453 19.0934 16.9065 19.0934 17.029C19.0934 17.1011 19.0573 17.1479 18.9853 17.1695C18.834 17.2127 18.6971 17.2344 18.5746 17.2344C18.1999 17.2344 17.9513 17.029 17.8288 16.6183C17.7568 16.3373 17.7207 16.0022 17.7207 15.6131C17.7207 15.0367 17.8252 14.1973 18.0342 13.0948C18.2431 11.9924 18.5386 10.717 18.9204 9.26874C19.1078 8.52658 19.2735 7.84206 19.4176 7.21519C19.6266 6.3073 19.7311 5.66241 19.7311 5.28052C19.7311 4.96348 19.6626 4.80496 19.5257 4.80496C19.2663 4.80496 18.7043 5.42463 17.8396 6.66397C17.0038 7.88169 15.959 9.58578 14.7053 11.7762C14.309 12.468 14.0099 12.9687 13.8082 13.2786L13.7325 13.4839C13.7109 13.556 13.6569 13.592 13.5704 13.592L13.5164 13.5812C13.4443 13.5452 13.4083 13.4947 13.4083 13.4299C13.4083 13.4011 13.5704 12.9399 13.8946 12.0464C14.1973 11.2106 14.5395 10.2163 14.9214 9.06338C15.75 6.51986 16.1644 4.8518 16.1644 4.0592C16.1644 3.69172 16.0743 3.50798 15.8942 3.50798C15.5555 3.50798 14.9646 4.08442 14.1216 5.23729C13.0984 6.65677 11.751 8.84002 10.0794 11.787C9.69746 12.4499 9.35521 13.0372 9.05258 13.5488C8.62025 14.3053 8.16991 14.9719 7.70156 15.5483C6.90896 16.485 6.16679 17.029 5.47507 17.1803C5.28773 17.2236 5.1112 17.2452 4.94547 17.2452Z" fill="#121212"/>
<path d="M43.0292 21.1835H43.0133C42.9658 21.1677 42.942 21.1175 42.942 21.0329C42.942 20.8956 42.9843 20.8163 43.0688 20.7952C43.1428 20.8004 43.1798 20.8427 43.1798 20.922C43.1798 20.9484 43.1745 20.9827 43.1639 21.025C43.1534 21.062 43.1349 21.099 43.1085 21.136C43.082 21.1677 43.0556 21.1835 43.0292 21.1835ZM39.518 27.2073C39.3489 27.2073 39.2247 27.1254 39.1455 26.9616C39.0821 26.8453 39.0504 26.708 39.0504 26.5494C39.0504 26.3751 39.1058 26.1241 39.2168 25.7965C39.3225 25.4689 39.6078 25.0937 40.0728 24.671C40.3846 24.4068 40.7095 24.1848 41.0477 24.0052C41.3859 23.8203 41.7241 23.6591 42.0622 23.5217C42.4374 22.671 42.691 21.992 42.8231 21.4847C42.8495 21.416 42.9024 21.3817 42.9816 21.3817C43.0451 21.3817 43.0768 21.4134 43.0768 21.4768L43.0688 21.5244C42.942 21.9946 42.7174 22.6181 42.3951 23.3949C42.6171 23.3103 42.8812 23.1782 43.1877 22.9986C43.4942 22.8189 43.7927 22.5917 44.0834 22.317C44.0939 22.2958 44.1177 22.2853 44.1547 22.2853C44.1653 22.2853 44.1785 22.2905 44.1943 22.3011C44.2102 22.3117 44.2181 22.3328 44.2181 22.3645L44.2102 22.4041C43.8244 22.7476 43.4836 23.0012 43.1877 23.165C42.8971 23.3288 42.6091 23.4689 42.3238 23.5851L42.3 23.593C41.9513 24.4015 41.5418 25.1624 41.0715 25.8757C40.5801 26.5785 40.1679 26.9986 39.835 27.136C39.7188 27.1835 39.6131 27.2073 39.518 27.2073ZM39.518 26.9616C39.5972 26.9616 39.732 26.9167 39.9222 26.8268C40.1124 26.737 40.4268 26.3724 40.8654 25.7331C40.9869 25.5534 41.1138 25.35 41.2459 25.1228C41.5259 24.6366 41.7663 24.1743 41.9671 23.7357C41.3383 23.9735 40.7333 24.3275 40.1521 24.7978C39.7558 25.1677 39.4889 25.5376 39.3515 25.9074C39.2617 26.1452 39.2168 26.3486 39.2168 26.5177C39.2168 26.6128 39.23 26.6974 39.2564 26.7714C39.3093 26.8982 39.3965 26.9616 39.518 26.9616Z" fill="#121212"/>
<path d="M40.8579 23.8229L40.7866 23.815C40.6756 23.7728 40.6202 23.6776 40.6202 23.5297C40.6202 23.2761 40.7285 22.9194 40.9451 22.4597C40.8342 22.5706 40.7206 22.671 40.6043 22.7609C40.2714 23.0092 40.0257 23.1334 39.8672 23.1334C39.8091 23.1334 39.7642 23.1175 39.7324 23.0858C39.6743 23.0383 39.6453 22.9722 39.6453 22.8877C39.6453 22.8401 39.6664 22.7556 39.7087 22.634C39.7509 22.5125 39.8487 22.3646 40.0019 22.1902C40.1552 22.0158 40.319 21.8864 40.4933 21.8018C40.5779 21.7648 40.6571 21.7463 40.7311 21.7463C40.8157 21.7463 40.8976 21.7728 40.9768 21.8256C41.0033 21.852 41.0165 21.8864 41.0165 21.9286C41.0165 21.9551 41.0059 21.9815 40.9848 22.0079C40.9636 22.0343 40.9319 22.0475 40.8896 22.0475C40.8632 22.0475 40.8368 22.0396 40.8104 22.0237C40.7892 22.0026 40.7602 21.992 40.7232 21.992C40.6756 21.992 40.607 22.0185 40.5171 22.0713C40.4326 22.1189 40.3348 22.2008 40.2239 22.317C40.1129 22.428 40.0257 22.5389 39.9623 22.6499C39.92 22.7239 39.8989 22.7873 39.8989 22.8401C39.8989 22.9088 39.9253 22.9432 39.9782 22.9432C40.068 22.9432 40.245 22.8428 40.5092 22.642C40.8315 22.3883 41.0772 22.1268 41.2463 21.8573C41.2569 21.8362 41.2648 21.823 41.2701 21.8177C41.2807 21.8071 41.2859 21.7992 41.2859 21.7939C41.3124 21.7622 41.3467 21.7463 41.389 21.7463C41.4048 21.7463 41.426 21.7543 41.4524 21.7701C41.4788 21.786 41.4947 21.8045 41.4999 21.8256C41.5052 21.8467 41.5079 21.8652 41.5079 21.8811C41.5079 21.8969 41.5026 21.9154 41.492 21.9366C41.4339 22.0211 41.3441 22.1823 41.2225 22.42C41.101 22.6578 41.0006 22.8956 40.9213 23.1334C40.8791 23.2549 40.8579 23.3553 40.8579 23.4346C40.8579 23.5508 40.9029 23.6089 40.9927 23.6089C41.0984 23.6089 41.2569 23.5297 41.4682 23.3712C41.6796 23.2126 41.8962 23.0198 42.1182 22.7926C42.3454 22.5654 42.4933 22.4068 42.562 22.317C42.5779 22.2959 42.5964 22.2853 42.6175 22.2853C42.6492 22.2853 42.6756 22.3012 42.6968 22.3329L42.7047 22.3646C42.7047 22.4227 42.5303 22.6182 42.1816 22.9511C41.9385 23.1889 41.6849 23.4002 41.4207 23.5852C41.1935 23.7437 41.0059 23.8229 40.8579 23.8229Z" fill="#121212"/>
<path d="M37.6816 24.4253C37.5178 24.4253 37.4359 24.3408 37.4359 24.1717C37.4359 24.1453 37.4438 24.0792 37.4597 23.9736C37.4703 23.8679 37.5733 23.6459 37.7688 23.3078C37.9115 23.0753 38.0172 22.8666 38.0858 22.6816C38.0964 22.6446 38.1017 22.6129 38.1017 22.5865C38.1017 22.5178 38.0541 22.465 37.959 22.428C37.9273 22.4174 37.8956 22.4016 37.8639 22.3804C37.7741 22.317 37.7292 22.2219 37.7292 22.0951C37.7292 21.9049 37.8111 21.7331 37.9749 21.5799C38.1017 21.4742 38.2206 21.4214 38.3316 21.4214C38.4319 21.4214 38.498 21.461 38.5297 21.5403L38.5376 21.5878C38.5376 21.7358 38.387 21.9524 38.0858 22.2378C38.2655 22.2906 38.3553 22.4016 38.3553 22.5707C38.3553 22.7345 38.2312 23.0198 37.9828 23.4267C37.7979 23.7543 37.7054 23.9841 37.7054 24.1162C37.7054 24.1955 37.7424 24.2351 37.8164 24.2351C37.9485 24.2351 38.1915 24.0872 38.5456 23.7913C39.0105 23.3897 39.4623 22.8983 39.9009 22.317C39.9115 22.3012 39.9273 22.2906 39.9485 22.2853C39.9696 22.2853 39.9881 22.2932 40.0039 22.3091C40.0251 22.3197 40.0356 22.3382 40.0356 22.3646C40.0356 22.4016 39.8428 22.642 39.457 23.0858C39.1981 23.3817 38.9286 23.6565 38.6486 23.9101C38.2364 24.2536 37.9141 24.4253 37.6816 24.4253ZM37.9749 22.1347C38.2232 21.8864 38.3474 21.7331 38.3474 21.675C38.3474 21.6592 38.3421 21.6512 38.3316 21.6512C38.3104 21.6512 38.2814 21.6618 38.2444 21.6829C38.1334 21.7516 38.0541 21.8388 38.0066 21.9445C37.9854 21.9921 37.9749 22.0396 37.9749 22.0872V22.1347Z" fill="#121212"/>
<path d="M34.0977 24.2192C34.066 24.2192 34.0369 24.2113 34.0105 24.1954C33.9788 24.1743 33.963 24.1452 33.963 24.1082V24.0765C34.3434 22.877 34.7186 21.9021 35.0884 21.1518C35.4636 20.4015 35.8705 19.7278 36.309 19.1307C36.9537 18.2747 37.4715 17.8467 37.8625 17.8467C38.0475 17.8467 38.14 17.9709 38.14 18.2192C38.14 18.2245 38.1373 18.317 38.132 18.4966C38.1267 18.671 37.844 19.1228 37.2839 19.852C36.8348 20.4279 36.2932 21.0144 35.6591 21.6115C35.3104 21.9444 35.0488 22.169 34.8744 22.2852C34.7423 22.5759 34.56 23.0593 34.3275 23.7357C34.9141 22.9272 35.3817 22.4094 35.7304 22.1822C35.8361 22.1188 35.926 22.0871 35.9999 22.0871C36.1637 22.0871 36.2456 22.2218 36.2456 22.4913C36.2456 22.5917 36.2351 22.708 36.2139 22.8401C36.1928 22.9722 36.1822 23.0831 36.1822 23.1729C36.1822 23.3579 36.2377 23.4504 36.3487 23.4504C36.4596 23.4504 36.6261 23.3711 36.848 23.2126C37.1228 23.0171 37.4345 22.7265 37.7833 22.3407C37.7991 22.3249 37.8176 22.3143 37.8388 22.309C37.8599 22.309 37.8784 22.3169 37.8942 22.3328C37.9101 22.3434 37.918 22.3592 37.918 22.3803C37.918 22.4015 37.9101 22.42 37.8942 22.4358C37.5349 22.8374 37.2126 23.136 36.9273 23.3315C36.6367 23.5428 36.4042 23.6485 36.2298 23.6485L36.1347 23.6406C36.0026 23.6089 35.9365 23.4636 35.9365 23.2047C35.9365 23.099 35.9471 22.9748 35.9682 22.8321C35.9788 22.7423 35.9841 22.663 35.9841 22.5944C35.9841 22.4094 35.9418 22.3169 35.8573 22.3169C35.852 22.3169 35.8124 22.3249 35.7384 22.3407C35.6697 22.3566 35.5164 22.5045 35.2787 22.7846C34.9458 23.1597 34.605 23.6062 34.2562 24.1241C34.2245 24.1875 34.1717 24.2192 34.0977 24.2192ZM34.9616 22.0475C35.1519 21.8942 35.4002 21.667 35.7067 21.3658C36.2351 20.8533 36.7212 20.3196 37.1651 19.7648C37.7146 19.0461 37.9894 18.5468 37.9894 18.2668C37.9894 18.1347 37.9392 18.0686 37.8388 18.0686C37.7806 18.0686 37.6591 18.1162 37.4742 18.2113C37.2892 18.3064 36.9695 18.6604 36.5151 19.2734C36.2456 19.6538 35.9629 20.1029 35.667 20.6208C35.3764 21.1333 35.1413 21.6089 34.9616 22.0475Z" fill="#121212"/>
<path d="M34.6948 22.3408C34.7106 22.3566 34.7185 22.3751 34.7185 22.3962C34.7185 22.4174 34.7133 22.4359 34.7027 22.4517C34.4861 22.7106 34.1981 22.9801 33.8388 23.2602C33.4847 23.5349 33.1307 23.667 32.7767 23.6565C32.4544 23.6089 32.2826 23.4478 32.2615 23.173C32.2404 22.8929 32.3223 22.5917 32.5072 22.2694C32.6974 21.9418 32.9458 21.6908 33.2522 21.5165C33.4953 21.4055 33.6644 21.4055 33.7595 21.5165C33.8599 21.6221 33.8229 21.7674 33.6485 21.9524C33.5481 22.0422 33.4108 22.1215 33.2364 22.1902C33.0673 22.2589 32.9114 22.2985 32.7688 22.309C32.6948 22.4042 32.6287 22.5336 32.5706 22.6974C32.5125 22.8612 32.4966 23.0197 32.523 23.173C32.5495 23.3209 32.6578 23.416 32.848 23.4583C33.1492 23.4847 33.4662 23.3632 33.7991 23.0937C34.1373 22.8242 34.3989 22.5759 34.5838 22.3487C34.5997 22.3328 34.6155 22.3249 34.6314 22.3249C34.6525 22.3196 34.6736 22.3249 34.6948 22.3408ZM33.6089 21.667C33.5561 21.6301 33.4557 21.6512 33.3077 21.7305C33.1598 21.8097 33.0145 21.9471 32.8718 22.1426C33.1413 22.0686 33.3394 21.9841 33.4662 21.889C33.5983 21.7886 33.6459 21.7146 33.6089 21.667Z" fill="#121212"/>
<path d="M20.7413 27.9999C20.4084 27.9999 20.0992 27.8678 19.8139 27.6036C19.5286 27.3394 19.3648 26.9299 19.3225 26.3751C19.3172 26.3117 19.3146 26.2456 19.3146 26.1769C19.3146 25.6855 19.4678 25.1598 19.7743 24.5997C20.0966 24.0132 20.6197 23.5402 21.3436 23.1809L21.3753 23.173C21.3859 23.173 21.4018 23.1783 21.4229 23.1888C21.444 23.1941 21.4546 23.2153 21.4546 23.2523C21.4546 23.284 21.4387 23.3077 21.407 23.3236C20.7148 23.6618 20.2155 24.1135 19.909 24.6789C19.6131 25.2126 19.4652 25.712 19.4652 26.1769C19.4652 26.2192 19.4731 26.3777 19.4889 26.6525C19.5101 26.9273 19.666 27.1994 19.9566 27.4689C20.1679 27.6644 20.4242 27.7621 20.7254 27.7621C20.8364 27.7621 21.0372 27.7278 21.3278 27.6591C21.6237 27.5957 22.0385 27.2522 22.5722 26.6287C23.1428 25.9048 23.6739 25.0198 24.1653 23.9735C24.6567 22.9273 25.0847 21.8996 25.4493 20.8903C25.8139 19.8758 26.0939 19.0568 26.2895 18.4333C25.5867 19.6433 24.942 20.4438 24.3555 20.8348C24.197 20.9405 24.049 20.9933 23.9117 20.9933C23.7426 20.9933 23.5867 20.9167 23.444 20.7635C23.4229 20.7371 23.4123 20.7107 23.4123 20.6842C23.4123 20.6684 23.4202 20.6446 23.4361 20.6129C23.4572 20.5759 23.4942 20.5574 23.5471 20.5574C23.5788 20.5574 23.6078 20.5733 23.6342 20.605C23.7241 20.7001 23.8245 20.7476 23.9354 20.7476C24.0517 20.7476 24.2155 20.6737 24.4268 20.5257C24.6435 20.3778 24.9024 20.1109 25.2036 19.7252C25.5101 19.3342 25.7848 18.9405 26.0279 18.5442C26.2762 18.1479 26.4533 17.8467 26.5589 17.6407C26.5748 17.5984 26.5933 17.5746 26.6144 17.5693C26.6356 17.5588 26.654 17.5535 26.6699 17.5535C26.6963 17.5535 26.7227 17.564 26.7492 17.5852C26.7809 17.601 26.7967 17.6327 26.7967 17.6803C26.7967 17.7014 26.7888 17.7252 26.7729 17.7516C26.7624 17.778 26.699 17.9709 26.5827 18.3302C26.0649 20.0052 25.4678 21.6248 24.7914 23.1888C25.6474 21.6723 26.5008 20.317 27.3515 19.1228C28.0437 18.1981 28.5457 17.7358 28.8575 17.7358C29.0424 17.7358 29.1349 17.9233 29.1349 18.2985C29.1349 18.6155 29.0688 19.0726 28.9367 19.6697C28.6303 20.9907 28.1494 22.5601 27.4942 24.3777L27.7637 23.918C28.662 22.3487 29.4255 21.1017 30.0543 20.177C30.4717 19.5746 30.8337 19.1439 31.1402 18.885C31.2987 18.7529 31.4281 18.6869 31.5285 18.6869C31.7135 18.6869 31.8059 18.8692 31.8059 19.2338C31.8059 19.5614 31.7346 20.0449 31.5919 20.6842C31.4915 21.1387 31.3753 21.6274 31.2432 22.1505L31.2273 22.206C30.6461 24.4834 30.3555 26.0079 30.3555 26.7793C30.3555 27.0488 30.3819 27.276 30.4347 27.461C30.4876 27.6512 30.5985 27.7463 30.7676 27.7463C30.8258 27.7463 30.8892 27.7357 30.9579 27.7146L30.9975 27.7067C31.0767 27.7067 31.1164 27.7516 31.1164 27.8414C31.1164 27.8942 31.09 27.9286 31.0371 27.9444C30.9262 27.9761 30.8258 27.992 30.7359 27.992C30.4612 27.992 30.2789 27.8414 30.189 27.5402C30.1362 27.3341 30.1098 27.0884 30.1098 26.8031C30.1098 26.3804 30.1864 25.7648 30.3396 24.9563C30.4929 24.1479 30.7095 23.2126 30.9896 22.1505C31.1269 21.6063 31.2485 21.1043 31.3542 20.6446C31.5074 19.9788 31.584 19.5059 31.584 19.2259C31.584 18.9934 31.5338 18.8771 31.4334 18.8771C31.2432 18.8771 30.831 19.3315 30.197 20.2404C29.584 21.1334 28.8178 22.383 27.8984 23.9894C27.6078 24.4966 27.3885 24.8639 27.2406 25.0911L27.1851 25.2417C27.1692 25.2945 27.1296 25.3209 27.0662 25.3209L27.0266 25.313C26.9737 25.2866 26.9473 25.2496 26.9473 25.202C26.9473 25.1809 27.0662 24.8427 27.304 24.1875C27.5259 23.5746 27.7769 22.8454 28.0569 21.9999C28.6646 20.1347 28.9684 18.9115 28.9684 18.3302C28.9684 18.0607 28.9024 17.926 28.7703 17.926C28.5219 17.926 28.0887 18.3487 27.4704 19.1941C26.7201 20.2351 25.732 21.8361 24.5061 23.9973C24.226 24.4834 23.9751 24.9141 23.7531 25.2892C23.4361 25.8441 23.1058 26.3328 22.7624 26.7555C22.1811 27.4425 21.6369 27.8414 21.1296 27.9524C20.9922 27.9841 20.8628 27.9999 20.7413 27.9999Z" fill="#121212"/>
</svg>
