<svg fill="none" height="137" viewBox="0 0 517 137" width="517" xmlns="http://www.w3.org/2000/svg"><g fill="#fff"><path d="m45.0322 52.9756c14.041 0 23.5498 9.9531 23.9942 24.9717h-48.9659c1.0665-14.8409 11.1084-24.9717 24.9717-24.9717zm23.9053 53.7644c-2.666 8.443-11.4639 13.775-22.6611 13.775-15.8184 0-26.3047-11.02-26.3047-27.7269v-1.1553h68.3388v-6.7539c0-29.2373-16.707-47.6328-43.1894-47.6328-27.0156 0-44.611334 19.6396-44.611334 49.8545 0 30.2144 17.417934 49.0544 45.411134 49.0544 21.6836 0 38.6572-12.086 41.4121-29.415zm35.7245 28.26h19.284v-134.011719h-19.284zm40.612 0h19.285v-96.5098h-19.285zm9.687-110.2842c6.221 0 11.286-4.9765 11.286-11.1084 0-6.30955-5.065-11.10838-11.286-11.10838s-11.286 4.79883-11.286 11.10838c0 6.1319 5.065 11.1084 11.286 11.1084zm28.526 41.2344c0 13.3301 8.62 22.2168 26.038 26.4824l17.241 4.2656c10.13 2.5772 13.952 5.7768 13.952 11.9078 0 7.821-7.554 12.797-19.551 12.797-12.264 0-19.729-5.065-21.239-14.307h-19.018c1.422 17.418 16.796 29.059 39.279 29.059 23.373 0 39.724-11.908 39.724-29.148 0-14.2189-7.198-21.2394-26.66-25.9494l-15.996-3.8213c-10.22-2.4883-15.019-6.4873-15.019-12.3525 0-7.6426 7.287-12.708 18.218-12.708 11.02 0 18.396 5.332 19.195 13.8633h18.129c-.444-16.7959-15.729-28.7041-36.88-28.7041-22.216 0-37.413 11.6416-37.413 28.6152zm133.39 70.2048c27.904 0 45.589-19.017 45.589-49.4099 0-30.3926-17.774-49.499-45.589-49.499s-45.678 19.1953-45.678 49.499c0 30.3929 17.774 49.4099 45.678 49.4099zm0-15.996c-16.352 0-26.127-12.352-26.127-33.4139 0-20.9726 9.775-33.5029 26.127-33.5029s26.038 12.4414 26.038 33.5029c0 21.0619-9.686 33.4139-26.038 33.4139zm61.052 14.841h19.284v-55.7197c0-15.1963 8.709-25.3272 23.283-25.3272 14.13 0 20.884 8.1758 20.884 22.8389v58.208h19.284v-61.8516c0-22.2168-12.175-35.7246-33.503-35.7246-14.93 0-24.616 5.9541-30.481 17.3291h-.356v-16.2627h-18.395z"/><path d="m20 52h54v31h-54z"/><path d="m492.902 58.3945c12.95 0 23.145-10.1367 23.145-23.1738 0-13.0957-10.195-23.1738-23.145-23.1738-12.89 0-23.144 10.0781-23.144 23.1738 0 13.0371 10.254 23.1738 23.144 23.1738zm0-4.541c-10.341 0-18.574-8.1152-18.574-18.6328 0-10.5762 8.233-18.6328 18.574-18.6328 10.401 0 18.604 8.0566 18.604 18.6328 0 10.5176-8.203 18.6328-18.604 18.6328zm10.869-22.207c-.585-4.7754-4.423-8.3496-10.4-8.3496-6.914 0-11.338 4.5703-11.338 11.8652 0 7.4121 4.424 11.9824 11.367 11.9824 5.948 0 9.786-3.3398 10.371-8.2031h-4.98c-.557 2.5195-2.578 3.8965-5.391 3.8965-3.691 0-6.093-2.8418-6.093-7.6758 0-4.7461 2.373-7.5586 6.093-7.5586 2.959 0 4.893 1.7285 5.391 4.043z"/></g></svg>