<svg width="517" height="137" viewBox="0 0 517 137" fill="none" xmlns="http://www.w3.org/2000/svg">
<path d="M50 122L107.816 15L144.864 60.0846L177.237 15L241 122L177.237 74.5413L144.864 102.948L107.816 73.2175L50 122Z" fill="url(#paint0_linear_387_1220)"/>
<path d="M50 122L107.816 15L144.864 60.0846L177.237 15L241 122L177.237 74.5413L144.864 102.948L107.816 73.2175L50 122Z" fill="white"/>
<path d="M241.875 44.2695H231.258V77.4922C231.258 88.7422 239.52 96.3008 252.492 96.3008C265.5 96.3008 273.762 88.7422 273.762 77.4922V44.2695H263.145V76.4023C263.145 82.8008 259.312 86.8789 252.492 86.8789C245.707 86.8789 241.875 82.8008 241.875 76.4023V44.2695ZM309.059 95V53.3398H324.281V44.2695H283.219V53.3398H298.441V95H309.059ZM367.277 85.9297H344.285V73.5898H365.977V65.1875H344.285V53.3398H367.277V44.2695H333.668V95H367.277V85.9297ZM412.066 85.9297H389.074V73.5898H410.766V65.1875H389.074V53.3398H412.066V44.2695H378.457V95H412.066V85.9297ZM446.027 95C456.855 95 463.57 89.375 463.57 80.4805C463.57 73.9414 458.684 68.8789 451.969 68.3867V67.7539C457.172 66.9805 461.145 62.3047 461.145 56.9258C461.145 49.0859 455.273 44.2695 445.43 44.2695H423.246V95H446.027ZM433.863 52.3906H442.723C447.785 52.3906 450.703 54.8164 450.703 58.8594C450.703 62.9375 447.574 65.293 441.844 65.293H433.863V52.3906ZM433.863 86.8789V72.4648H443.074C449.332 72.4648 452.742 74.9258 452.742 79.5664C452.742 84.3125 449.438 86.8789 443.32 86.8789H433.863Z" fill="white"/>
<path d="M241.875 44.2695H231.258V77.4922C231.258 88.7422 239.52 96.3008 252.492 96.3008C265.5 96.3008 273.762 88.7422 273.762 77.4922V44.2695H263.145V76.4023C263.145 82.8008 259.312 86.8789 252.492 86.8789C245.707 86.8789 241.875 82.8008 241.875 76.4023V44.2695ZM309.059 95V53.3398H324.281V44.2695H283.219V53.3398H298.441V95H309.059ZM367.277 85.9297H344.285V73.5898H365.977V65.1875H344.285V53.3398H367.277V44.2695H333.668V95H367.277V85.9297ZM412.066 85.9297H389.074V73.5898H410.766V65.1875H389.074V53.3398H412.066V44.2695H378.457V95H412.066V85.9297ZM446.027 95C456.855 95 463.57 89.375 463.57 80.4805C463.57 73.9414 458.684 68.8789 451.969 68.3867V67.7539C457.172 66.9805 461.145 62.3047 461.145 56.9258C461.145 49.0859 455.273 44.2695 445.43 44.2695H423.246V95H446.027ZM433.863 52.3906H442.723C447.785 52.3906 450.703 54.8164 450.703 58.8594C450.703 62.9375 447.574 65.293 441.844 65.293H433.863V52.3906ZM433.863 86.8789V72.4648H443.074C449.332 72.4648 452.742 74.9258 452.742 79.5664C452.742 84.3125 449.438 86.8789 443.32 86.8789H433.863Z" fill="white"/>
<defs>
<linearGradient id="paint0_linear_387_1220" x1="146.483" y1="16.3239" x2="146.483" y2="123.324" gradientUnits="userSpaceOnUse">
<stop stop-color="white"/>
<stop offset="1" stop-color="white"/>
</linearGradient>
</defs>
</svg>
