<?xml version="1.0" encoding="utf-8"?>
<!-- Generator: Adobe Illustrator 26.4.1, SVG Export Plug-In . SVG Version: 6.00 Build 0)  -->
<svg version="1.1" id="Layer_1" xmlns="http://www.w3.org/2000/svg" xmlns:xlink="http://www.w3.org/1999/xlink" x="0px" y="0px"
	 viewBox="0 0 517 137" style="enable-background:new 0 0 517 137;" xml:space="preserve">
<style type="text/css">
	.st0{fill:#FFFFFF;}
</style>
<path class="st0" d="M464.2,58.6c12.9,0,23.1-10.1,23.1-23.2c0-13.1-10.2-23.2-23.1-23.2c-12.9,0-23.1,10.1-23.1,23.2
	C441.1,48.5,451.3,58.6,464.2,58.6z M464.2,54.1c-10.3,0-18.6-8.1-18.6-18.6c0-10.6,8.2-18.6,18.6-18.6c10.4,0,18.6,8.1,18.6,18.6
	C482.8,46,474.6,54.1,464.2,54.1z M475.1,31.9c-0.6-4.8-4.4-8.3-10.4-8.3c-6.9,0-11.3,4.6-11.3,11.9c0,7.4,4.4,12,11.4,12
	c5.9,0,9.8-3.3,10.4-8.2h-5c-0.6,2.5-2.6,3.9-5.4,3.9c-3.7,0-6.1-2.8-6.1-7.7c0-4.7,2.4-7.6,6.1-7.6c3,0,4.9,1.7,5.4,4H475.1z"/>
<g>
	<path class="st0" d="M7.8,122.7L26,29.5l30.2,67.3l30.4-67.3l16.4,93.2H89.4l-8.8-52.3l-25.2,56.3l-25-56.4l-9.1,52.4H7.8z"/>
	<path class="st0" d="M134.4,36v52.3c0,4.7,0.1,10.4,2.7,15c2.6,4.4,8.5,9,16.1,9c7.7,0,13.5-4.5,16.1-9c2.6-4.5,2.7-10.3,2.7-15V36
		h13.3v55.8c0,6.9-1.4,15.2-8.1,22.5c-4.6,4.9-12.2,10.1-24.1,10.1c-11.8,0-19.5-5.2-24.1-10.1c-6.6-7.3-8.1-15.6-8.1-22.5V36H134.4
		z"/>
	<path class="st0" d="M230.2,48.5v74.2H217V48.5h-19.9V36h53v12.5H230.2z"/>
	<path class="st0" d="M309.7,48.5h-34.6v22h33.5v12.5h-33.5v27.3h34.6v12.5h-47.8V36h47.8V48.5z"/>
	<path class="st0" d="M374.7,48.5h-34.6v22h33.5v12.5h-33.5v27.3h34.6v12.5h-47.8V36h47.8V48.5z"/>
	<path class="st0" d="M404.9,36c11.2,0,18.2,1.4,23.9,6.8c4.7,4.4,6.9,10,6.9,17.2c0,3.4-0.5,6.9-2.6,10.3c-2,3.4-4.6,5.1-6.5,6
		c1.6,0.4,6.9,1.8,11.2,6.2c4.7,4.9,5.7,10.9,5.7,16.3c0,6.2-1.6,11.2-5.7,15.6c-6.9,7.3-17.7,8.5-24.3,8.5h-21.7V36H404.9z
		 M405.1,73.3h4c3.2,0,7.7-0.4,10.8-3.4c3-2.9,3.4-6.9,3.4-9.9c0-2.6-0.4-5.7-3.1-8.3c-3-2.9-6.8-3.3-10.5-3.3h-4.5V73.3z
		 M405.1,110.2h8.1c3.8,0,9.8-0.6,13.1-3.4c2.6-2.1,4.3-5.7,4.3-9.6c0-3.5-1.3-6.9-3.5-9.1c-3.6-3.5-9-3.9-13.7-3.9h-8.3V110.2z"/>
</g>
</svg>
