<svg width="517" height="137" viewBox="0 0 517 137" fill="none" xmlns="http://www.w3.org/2000/svg">
<path d="M45.0322 52.9756C59.0732 52.9756 68.582 62.9287 69.0264 77.9473H20.0605C21.127 63.1064 31.1689 52.9756 45.0322 52.9756ZM68.9375 106.74C66.2715 115.183 57.4736 120.515 46.2764 120.515C30.458 120.515 19.9717 109.495 19.9717 92.7881V91.6328H88.3105V84.8789C88.3105 55.6416 71.6035 37.2461 45.1211 37.2461C18.1055 37.2461 0.509766 56.8857 0.509766 87.1006C0.509766 117.315 17.9277 136.155 45.9209 136.155C67.6045 136.155 84.5781 124.069 87.333 106.74H68.9375ZM104.662 135H123.946V0.988281H104.662V135ZM145.274 135H164.559V38.4902H145.274V135ZM154.961 24.7158C161.182 24.7158 166.247 19.7393 166.247 13.6074C166.247 7.29785 161.182 2.49902 154.961 2.49902C148.74 2.49902 143.675 7.29785 143.675 13.6074C143.675 19.7393 148.74 24.7158 154.961 24.7158ZM183.487 65.9502C183.487 79.2803 192.107 88.167 209.525 92.4326L226.766 96.6982C236.896 99.2754 240.718 102.475 240.718 108.606C240.718 116.427 233.164 121.403 221.167 121.403C208.903 121.403 201.438 116.338 199.928 107.096H180.91C182.332 124.514 197.706 136.155 220.189 136.155C243.562 136.155 259.913 124.247 259.913 107.007C259.913 92.7881 252.715 85.7676 233.253 81.0576L217.257 77.2363C207.037 74.748 202.238 70.749 202.238 64.8838C202.238 57.2412 209.525 52.1758 220.456 52.1758C231.476 52.1758 238.852 57.5078 239.651 66.0391H257.78C257.336 49.2432 242.051 37.335 220.9 37.335C198.684 37.335 183.487 48.9766 183.487 65.9502ZM316.877 136.155C344.781 136.155 362.466 117.138 362.466 86.7451C362.466 56.3525 344.692 37.2461 316.877 37.2461C289.062 37.2461 271.199 56.4414 271.199 86.7451C271.199 117.138 288.973 136.155 316.877 136.155ZM316.877 120.159C300.525 120.159 290.75 107.807 290.75 86.7451C290.75 65.7725 300.525 53.2422 316.877 53.2422C333.229 53.2422 342.915 65.6836 342.915 86.7451C342.915 107.807 333.229 120.159 316.877 120.159ZM377.929 135H397.213V79.2803C397.213 64.084 405.922 53.9531 420.496 53.9531C434.626 53.9531 441.38 62.1289 441.38 76.792V135H460.664V73.1484C460.664 50.9316 448.489 37.4238 427.161 37.4238C412.231 37.4238 402.545 43.3779 396.68 54.7529H396.324V38.4902H377.929V135Z" fill="white"/>
<rect x="20" y="52" width="54" height="31" fill="white"/>
<path d="M492.902 58.3945C505.852 58.3945 516.047 48.2578 516.047 35.2207C516.047 22.125 505.852 12.0469 492.902 12.0469C480.012 12.0469 469.758 22.125 469.758 35.2207C469.758 48.2578 480.012 58.3945 492.902 58.3945ZM492.902 53.8535C482.561 53.8535 474.328 45.7383 474.328 35.2207C474.328 24.6445 482.561 16.5879 492.902 16.5879C503.303 16.5879 511.506 24.6445 511.506 35.2207C511.506 45.7383 503.303 53.8535 492.902 53.8535ZM503.771 31.6465C503.186 26.8711 499.348 23.2969 493.371 23.2969C486.457 23.2969 482.033 27.8672 482.033 35.1621C482.033 42.5742 486.457 47.1445 493.4 47.1445C499.348 47.1445 503.186 43.8047 503.771 38.9414H498.791C498.234 41.4609 496.213 42.8379 493.4 42.8379C489.709 42.8379 487.307 39.9961 487.307 35.1621C487.307 30.416 489.68 27.6035 493.4 27.6035C496.359 27.6035 498.293 29.332 498.791 31.6465H503.771Z" fill="white"/>
</svg>
